<svg xmlns="http://www.w3.org/2000/svg" x="0px" y="0px" width="64" height="64" viewBox="0,0,256,256"
style="fill:#000000;">
<defs><linearGradient x1="17" y1="34.917" x2="17" y2="42.428" gradientUnits="userSpaceOnUse" id="color-1_44015_gr1"><stop offset="0" stop-color="#df3500"></stop><stop offset="1" stop-color="#df3500"></stop></linearGradient><linearGradient x1="37" y1="34.917" x2="37" y2="42.428" gradientUnits="userSpaceOnUse" id="color-2_44015_gr2"><stop offset="0" stop-color="#df3500"></stop><stop offset="1" stop-color="#df3500"></stop></linearGradient><linearGradient x1="32" y1="9.167" x2="32" y2="54.833" gradientUnits="userSpaceOnUse" id="color-3_44015_gr3"><stop offset="0" stop-color="#df3500"></stop><stop offset="1" stop-color="#df3500"></stop></linearGradient><linearGradient x1="17" y1="9.167" x2="17" y2="54.833" gradientUnits="userSpaceOnUse" id="color-4_44015_gr4"><stop offset="0" stop-color="#df3500"></stop><stop offset="1" stop-color="#df3500"></stop></linearGradient><linearGradient x1="17" y1="9.167" x2="17" y2="54.833" gradientUnits="userSpaceOnUse" id="color-5_44015_gr5"><stop offset="0" stop-color="#df3500"></stop><stop offset="1" stop-color="#df3500"></stop></linearGradient><linearGradient x1="17" y1="9.167" x2="17" y2="54.833" gradientUnits="userSpaceOnUse" id="color-6_44015_gr6"><stop offset="0" stop-color="#df3500"></stop><stop offset="1" stop-color="#df3500"></stop></linearGradient><linearGradient x1="37" y1="9.167" x2="37" y2="54.833" gradientUnits="userSpaceOnUse" id="color-7_44015_gr7"><stop offset="0" stop-color="#df3500"></stop><stop offset="1" stop-color="#df3500"></stop></linearGradient><linearGradient x1="47" y1="9.167" x2="47" y2="54.833" gradientUnits="userSpaceOnUse" id="color-8_44015_gr8"><stop offset="0" stop-color="#df3500"></stop><stop offset="1" stop-color="#df3500"></stop></linearGradient><linearGradient x1="47" y1="9.167" x2="47" y2="54.833" gradientUnits="userSpaceOnUse" id="color-9_44015_gr9"><stop offset="0" stop-color="#df3500"></stop><stop offset="1" stop-color="#df3500"></stop></linearGradient></defs><g fill="none" fill-rule="nonzero" stroke="none" stroke-width="1" stroke-linecap="butt" stroke-linejoin="miter" stroke-miterlimit="10" stroke-dasharray="" stroke-dashoffset="0" font-family="none" font-weight="none" font-size="none" text-anchor="none" style="mix-blend-mode: normal"><g transform="scale(4,4)"><path d="M22,41c0,0.552 -0.448,1 -1,1h-8c-0.552,0 -1,-0.448 -1,-1v-5c0,-0.552 0.448,-1 1,-1h8c0.552,0 1,0.448 1,1z" fill="url(#color-1_44015_gr1)"></path><path d="M42,41c0,0.552 -0.448,1 -1,1h-8c-0.552,0 -1,-0.448 -1,-1v-5c0,-0.552 0.448,-1 1,-1h8c0.552,0 1,0.448 1,1z" fill="url(#color-2_44015_gr2)"></path><path d="M47,10c-4.653,0 -8.631,2.909 -10.236,7h-5.764c-1.641,0 -3.088,0.806 -4,2.031c-0.912,-1.225 -2.359,-2.031 -4,-2.031h-12c-2.757,0 -5,2.243 -5,5v20v2v3c0,2.757 2.243,5 5,5h13c1.103,0 2,0.897 2,2h2c0,-1.103 0.897,-2 2,-2h13c2.757,0 5,-2.243 5,-5v-3v-2v-10.051c5.598,-0.507 10,-5.221 10,-10.949c0,-6.065 -4.935,-11 -11,-11zM24,50h-13c-1.243,0 -2.311,-0.76 -2.766,-1.84c0.793,0.529 1.743,0.84 2.766,0.84h12c1.015,0 1.91,0.509 2.453,1.283c-0.451,-0.177 -0.939,-0.283 -1.453,-0.283zM23,47h-12c-1.654,0 -3,-1.346 -3,-3v-2v-20c0,-1.654 1.346,-3 3,-3h12c1.654,0 3,1.346 3,3v6v20.028c-0.835,-0.639 -1.869,-1.028 -3,-1.028zM43,50h-13c-0.514,0 -1.002,0.106 -1.453,0.283c0.543,-0.774 1.438,-1.283 2.453,-1.283h12c1.023,0 1.973,-0.311 2.766,-0.84c-0.454,1.08 -1.523,1.84 -2.766,1.84zM46,42v2c0,1.654 -1.346,3 -3,3h-12c-1.131,0 -2.165,0.389 -3,1.028v-20.028v-6c0,-1.654 1.346,-3 3,-3h5.191c-0.12,0.65 -0.191,1.316 -0.191,2c0,0.684 0.071,1.35 0.191,2h-4.191v2h4.764c0.276,0.705 0.62,1.375 1.028,2h-5.792v2h7.474c1.742,1.639 4.01,2.721 6.526,2.949zM47,30c-4.963,0 -9,-4.037 -9,-9c0,-4.963 4.037,-9 9,-9c4.963,0 9,4.037 9,9c0,4.963 -4.037,9 -9,9z" fill="url(#color-3_44015_gr3)"></path><path d="M12,23h10v2h-10z" fill="url(#color-4_44015_gr4)"></path><path d="M12,27h10v2h-10z" fill="url(#color-5_44015_gr5)"></path><path d="M12,31h10v2h-10z" fill="url(#color-6_44015_gr6)"></path><path d="M32,31h10v2h-10z" fill="url(#color-7_44015_gr7)"></path><path d="M46,15h2v8h-2z" fill="url(#color-8_44015_gr8)"></path><path d="M46,25h2v2h-2z" fill="url(#color-9_44015_gr9)"></path></g></g>
</svg>